<svg version="1.1" xmlns="http://www.w3.org/2000/svg" x="0" y="0" viewBox="0 0 35 67" xml:space="preserve" fill="#181818">
	<path d="M5.4 5.3H1.6C.8 5.3.1 6 .1 6.9v18.3c0 .9.7 1.6 1.6 1.6H5.5c1.3 0 2.5-.3 3.7-.7v19c0 .9.7 1.6 1.6 1.6H12v19.6c0 .4.3.7.7.7.4 0 .7-.3.7-.7V46.7h1c.9 0 1.6-.7 1.6-1.6V15.9v-.1c-.1-5.7-4.8-10.4-10.6-10.5zM5.1 25H1.9V7.2h3.2V25zm9 19.8h-3.2V25.2c1.3-.8 2.4-1.8 3.2-3.1v22.7zM7 24.8V7.3c4.1.8 7.2 4.4 7.2 8.7s-3.1 8-7.2 8.8zM33.3 0h-3.7-.1C23.8.1 19.1 4.8 19 10.6V39.8c0 .9.7 1.6 1.6 1.6h1V61c0 .4.3.7.7.7.4 0 .7-.3.7-.7V41.4h1.2c.9 0 1.6-.7 1.6-1.6v-19c1.1.4 2.4.7 3.7.7H33.3c.9 0 1.6-.7 1.6-1.6V1.6c0-.9-.7-1.6-1.6-1.6zm-9.2 39.5h-3.2V16.8c.8 1.2 1.9 2.3 3.2 3.1v19.6zm3.9-20c-4.1-.8-7.2-4.4-7.2-8.7s3.1-8 7.2-8.8v17.5zm5.1.1h-3.2V1.8h3.2v17.8z"/>
</svg>
